<?xml version="1.0" encoding="utf-8"?>
<!-- Generator: Adobe Illustrator 21.0.2, SVG Export Plug-In . SVG Version: 6.00 Build 0)  -->
<svg version="1.1" id="Layer_1" xmlns="http://www.w3.org/2000/svg" xmlns:xlink="http://www.w3.org/1999/xlink" x="0px" y="0px"
	 viewBox="0 0 850.4 850.4" enable-background="new 0 0 850.4 850.4" xml:space="preserve">
<g>
	<path fill="#E99023" d="M602.9,428.9c33.5,54.7,57.4,127.2,56,200.2c-1.3,66.6-16.8,133.1-53.9,172.2
		c-37.7,39.7-85.9,32.9-129.3,39.6c-59.4,9.3-119.7,2.8-178.9-7.9c-34.7-6.3-65.7-23.3-88.4-65.8c-20.9-39.1-28.9-87.8-29.8-137.6
		c-1.4-76.7,26.7-150.2,61.5-207.9c-42.8-5.7-73.5-15.2-74.3-29.3c-1.1-20.9,41.9-41.7,108.5-56.4c24-39.8,50.5-71.6,73.6-128.1
		c29.1-71.2,16.3-89.9,43.3-161.8c2.1-5.6,5.4-10.8,9.8-14.7c20.1-17.8,42.1-25.3,58.6-27.9c3.3-0.5,5.4,3.4,3.3,6
		c-16.8,19.7-33.1,48.5-20.6,73c24,47,26.2,72.3,50.1,116.6c29.1,53.8,53,83.7,78.9,121.3c67.1,7.6,111.7,23.6,112.8,44.4
		C685.1,383.9,655.3,413.9,602.9,428.9z"/>
	<path fill="#D66440" d="M659,629.1c-1.3,66.6-16.8,133.1-53.9,172.2c-37.7,39.7-85.9,32.9-129.3,39.6
		c-59.4,9.3-119.7,2.8-178.9-7.9c-34.7-6.3-65.7-23.3-88.4-65.8c-20.9-39.1-28.9-87.8-29.8-137.6c-1.4-76.8,26.7-150.2,61.5-207.9
		c43.8,5.9,100.3,7.7,150.6,6.3c33.4-0.9,66.6,1.9,99.7,6.8c44.1,6.5,82.1,2.9,112.6-5.8C636.5,483.6,660.3,556.1,659,629.1z"/>
	<path fill="#5F2D86" d="M684.1,364.7c-1.1-20.8-45.7-36.8-112.8-44.4c-0.2-0.3-0.4-0.5-0.5-0.8c0,0,0,0,0,0
		c-0.3-0.5-0.6-0.9-0.9-1.3c-25.3-36.6-48.9-66.3-77.4-119.2c-23.9-44.3-26.1-69.5-50.1-116.6c-12.5-24.5,3.8-53.3,20.6-73
		c2.2-2.6,0-6.5-3.3-6c-16.5,2.6-38.5,10.1-58.6,27.9c-4.5,4-7.7,9.2-9.8,14.7c-27,71.9-14.1,90.6-43.3,161.8
		c-15.5,37.8-32.5,64.6-49.2,90l0,0c-2.3,3.5-4.6,7.1-7,10.6c-3.6,5.5-7.2,11-10.7,16.6c0,0-0.1,0.1-0.1,0.1
		c-0.1,0.1-0.2,0.3-0.3,0.4c-2.1,3.4-4.3,6.8-6.4,10.3c-66.6,14.7-109.6,35.5-108.5,56.4c0.8,14,31.4,23.6,74.2,29.3
		c43.8,5.9,100.3,7.7,150.6,6.3c33.4-0.9,66.6,1.9,99.7,6.8c44.1,6.5,82.1,2.9,112.6-5.8C655.3,413.9,685.1,383.9,684.1,364.7z
		 M473.8,188.4l-1.7,14.8l11.2,9.8l-14.6,2.9l-5.9,13.6l-7.3-13l-14.8-1.3l10.1-10.9l-3.3-14.5l13.5,6.2L473.8,188.4z M448.1,135.7
		l-2.1,17.6l13.3,11.7l-17.4,3.5l-7,16.3l-8.7-15.4l-17.6-1.6l12-13l-3.9-17.3l16.1,7.4L448.1,135.7z M449.9,302.7h-26.5l3.2-3.5
		l-2.8-12.5l11.6,5.3l6.2-3.7l4.8-2.9l-1.5,12.7L449.9,302.7z M397.2,229.7l8.7,4l8.2-4.9l-1.1,9.5l7.2,6.3l-9.4,1.9l-3.8,8.8
		l-4.7-8.3l-9.5-0.9l6.5-7L397.2,229.7z M422.2,202.9l-3.8,8.8l-4.7-8.3l-9.5-0.9l6.5-7l-2.1-9.3l8.7,4l8.2-4.9l-1.1,9.5l7.2,6.3
		L422.2,202.9z M403.9,59.3l-2-8.6l8,3.7l7.6-4.5l-1,8.8l6.6,5.8l-8.7,1.7l-3.5,8.1l-4.3-7.7l-8.8-0.8L403.9,59.3z M396.4,100.4
		l-3.5-15.5l14.4,6.6l13.6-8.1l-1.8,15.7l11.9,10.5l-15.5,3.1l-6.3,14.6l-7.7-13.8l-15.8-1.4L396.4,100.4z M379.1,146.8l8.7,4
		l8.2-4.9l-1.1,9.5l7.2,6.3l-9.3,1.9l-3.8,8.8l-4.7-8.3l-9.5-0.8l6.5-7L379.1,146.8z M369.2,195.6l12.1,5.6l11.5-6.9l-1.6,13.3
		l10.1,8.8l-13.1,2.6l-5.3,12.3l-6.5-11.7l-13.3-1.2l9.1-9.8L369.2,195.6z M350.4,245.1l-2.1-9.3l8.7,4l8.2-4.9l-1.1,9.5l7.2,6.3
		l-9.4,1.9l-3.8,8.8l-4.7-8.3l-9.5-0.9L350.4,245.1z M377,312.3C377,312.3,377,312.3,377,312.3c-3.2-0.5-6.4-1-9.6-1.6l-29.4-5.5
		l0,0l12.5-13.6l-5.1-22.5l20.9,9.6l19.8-11.8l-2.7,22.9l14.6,12.8h-12.7c-1.4,0-2.5,1.1-2.5,2.5v3.4l-4.6,0.9L377,312.3z
		 M476.2,271.1l-4.6,10.7l-4.5,10.5l-11.3-20.1l-2.1-0.2l-20.8-1.9l15.6-16.9l-5.1-22.5l20.9,9.6l19.8-11.8l-2.7,22.9l17.3,15.2
		L476.2,271.1z M521.1,303.9L521.1,303.9l-24,4.2l0,0l1.1-1.2l-3.5-15.5l14.4,6.6l13.6-8.1L521.1,303.9z"/>
	<path d="M367.4,310.7c5.1,0.9,10.3,1.8,15.5,2.5v56.1c-45.8-3.7-87.1-15.6-106.9-35.8c7.5-12.2,15.2-23.8,22.9-35.6L367.4,310.7z
		 M434.8,322.9h-29.3c-1.4,0-2.5,1.1-2.5,2.5v29.2c0,1.4,1.1,2.5,2.5,2.5h29.3c1.4,0,2.5-1.2,2.5-2.5v-29.2
		C437.3,324,436.2,322.9,434.8,322.9z M555.6,297.9l-76.5,13.4c-7.2,1.3-14.4,2.3-21.6,3v54c53.1-5.7,99.8-22.1,113.2-48.8
		C565.6,312.1,560.6,305,555.6,297.9z"/>
	<path fill="#E8AE2C" d="M455,302.7h-69.6c-1.4,0-2.5,1.1-2.5,2.5v69.6c0,1.4,1.1,2.5,2.5,2.5H455c1.4,0,2.5-1.2,2.5-2.5v-69.6
		C457.5,303.9,456.4,302.7,455,302.7z M405.5,322.9h29.3c1.4,0,2.5,1.1,2.5,2.5v29.2c0,1.4-1.1,2.5-2.5,2.5h-29.3
		c-1.4,0-2.5-1.2-2.5-2.5v-29.2C403,324,404.2,322.9,405.5,322.9z"/>
	<path d="M278.2,598c0.3-2.3,2.2-2.6,2.8-0.4c11.2,44.7,44.3,154.2,48.3,149.8c4.2-4.6,37.2-47.5,37.2-47.5l25.9,40.8l32.4-41.9
		l24.2,37.8l28.4-44.1l18.9,38.4l16.1-40l9.3,25.1c0,0,1.1,4,8.7-21.9c7-24,22.7-116.6,24.9-129.8c0.1-0.8,0.7-1.3,1.2-0.9
		c21.1,18.5,27.1,196.4-23.3,238.5c-15-33.3-22.7-51.4-22.7-51.4l-20.2,43.7l-21.1-46.4l-21.3,36.8l-23.5-41.6L397,792.9l-29.9-43
		c0,0-34.5,56.4-38.6,56.2c-4.1-0.3-44.3-48.9-51.9-100.2C270.6,665,275.8,616.3,278.2,598z M401.3,652.7h44.9
		c1.6,0,2.5-2.9,1.6-5.1l-21.4-52.7c-0.8-1.8-2.4-1.9-3.2-0.1l-23.4,52.7C398.8,649.7,399.7,652.7,401.3,652.7z M462.1,568.7
		c5,18.6,34.9,59.6,42.5,69.9c1.2,1.7,3,1.7,4.2,0.1c17.4-21.8,9.5-153.4,7.3-185.3c-0.2-3.4-2.7-4.7-4.1-2.2
		c-10.1,19.2-35.9,90.1-48.5,107.2C461.8,560.9,461.1,565.1,462.1,568.7z M385.2,558.4c-12.6-17-38.4-88-48.5-107.2
		c-1.3-2.5-3.8-1.2-4.1,2.2c-2.2,31.9-10,163.5,7.3,185.3c1.3,1.6,3,1.6,4.2-0.1c7.6-10.3,37.5-51.3,42.5-69.9
		C387.7,565.1,387.1,560.9,385.2,558.4z"/>
</g>
</svg>
