<?xml version="1.0" encoding="utf-8"?>
<!-- Generator: Adobe Illustrator 21.0.2, SVG Export Plug-In . SVG Version: 6.00 Build 0)  -->
<svg version="1.1" id="Layer_1" xmlns="http://www.w3.org/2000/svg" xmlns:xlink="http://www.w3.org/1999/xlink" x="0px" y="0px"
	 viewBox="0 0 850.4 850.4" enable-background="new 0 0 850.4 850.4" xml:space="preserve">
<g>
	<path fill="#E99023" d="M602.6,429.3c33.5,54.7,57.4,127.2,56,200.2c-1.3,66.6-16.8,133.1-53.9,172.2
		c-37.7,39.7-85.9,32.9-129.3,39.6c-59.4,9.3-119.7,2.8-178.9-7.9c-34.7-6.3-65.7-23.3-88.4-65.8c-20.9-39.1-28.9-87.8-29.8-137.6
		c-1.4-76.7,26.7-150.2,61.5-207.9c-42.8-5.7-73.5-15.2-74.3-29.3c-1.1-20.9,41.9-41.7,108.5-56.4c24-39.8,50.5-71.6,73.6-128.1
		c29.1-71.2,16.3-89.9,43.3-161.8c2.1-5.6,5.4-10.8,9.8-14.7C420.8,14,442.8,6.5,459.3,3.9c3.3-0.5,5.4,3.4,3.3,6
		c-16.8,19.7-33.1,48.5-20.6,73c24,47,26.2,72.3,50.1,116.6c29.1,53.8,53,83.7,78.9,121.3c67.1,7.6,111.7,23.6,112.8,44.4
		C684.7,384.3,654.9,414.3,602.6,429.3z"/>
	<path fill="#D66440" d="M658.6,629.5c-1.3,66.6-16.8,133.1-53.9,172.2c-37.7,39.7-85.9,32.9-129.3,39.6
		c-59.4,9.3-119.7,2.8-178.9-7.9c-34.7-6.3-65.7-23.3-88.4-65.8c-20.9-39.1-28.9-87.8-29.8-137.6c-1.4-76.8,26.7-150.2,61.5-207.9
		c43.8,5.9,100.3,7.7,150.6,6.3c33.4-0.9,66.6,1.9,99.7,6.8c44.1,6.5,82.1,2.9,112.6-5.8C636.1,484.1,659.9,556.5,658.6,629.5z"/>
	<path fill="#5F2D86" d="M683.7,365.1c-1.1-20.8-45.7-36.8-112.8-44.4c-0.2-0.3-0.4-0.5-0.5-0.8c0,0,0,0,0,0
		c-0.3-0.5-0.6-0.9-0.9-1.3c-25.3-36.6-48.9-66.3-77.4-119.2C468.1,155.1,466,129.9,442,82.8c-12.5-24.5,3.8-53.3,20.6-73
		c2.2-2.6,0-6.5-3.3-6c-16.5,2.6-38.5,10.1-58.6,27.9c-4.5,4-7.7,9.2-9.8,14.7c-27,71.9-14.1,90.6-43.3,161.8
		c-15.5,37.8-32.5,64.6-49.2,90l0,0c-2.3,3.5-4.6,7.1-7,10.6c-3.6,5.5-7.2,11-10.7,16.6c0,0-0.1,0.1-0.1,0.1
		c-0.1,0.1-0.2,0.3-0.3,0.4c-2.1,3.4-4.3,6.8-6.4,10.3c-66.6,14.7-109.6,35.5-108.5,56.4c0.8,14,31.4,23.6,74.2,29.3
		c43.8,5.9,100.3,7.7,150.6,6.3c33.4-0.9,66.6,1.9,99.7,6.8c44.1,6.5,82.1,2.9,112.6-5.8C654.9,414.4,684.7,384.3,683.7,365.1z
		 M473.4,188.8l-1.7,14.8l11.2,9.8l-14.6,2.9l-5.9,13.6l-7.3-13l-14.8-1.3l10.1-10.9l-3.3-14.5l13.5,6.2L473.4,188.8z M447.7,136.1
		l-2.1,17.6l13.3,11.7l-17.4,3.5l-7,16.3l-8.7-15.4l-17.6-1.6l12-13l-3.9-17.3l16.1,7.4L447.7,136.1z M449.5,303.1H423l3.2-3.5
		l-2.8-12.5l11.6,5.3l6.2-3.7l4.8-2.9l-1.5,12.7L449.5,303.1z M396.8,230.2l8.7,4l8.2-4.9l-1.1,9.5l7.2,6.3l-9.4,1.9l-3.8,8.8
		l-4.7-8.3l-9.5-0.9l6.5-7L396.8,230.2z M421.8,203.3l-3.8,8.8l-4.7-8.3l-9.5-0.9l6.5-7l-2.1-9.3l8.7,4l8.2-4.9l-1.1,9.5l7.2,6.3
		L421.8,203.3z M403.5,59.7l-2-8.6l8,3.7l7.6-4.5l-1,8.8l6.6,5.8l-8.7,1.7l-3.5,8.1l-4.3-7.7l-8.8-0.8L403.5,59.7z M396.1,100.8
		l-3.5-15.5l14.4,6.6l13.6-8.1l-1.8,15.7l11.9,10.5l-15.5,3.1l-6.3,14.6l-7.7-13.8l-15.8-1.4L396.1,100.8z M378.7,147.2l8.7,4
		l8.2-4.9l-1.1,9.5l7.2,6.3l-9.3,1.9l-3.8,8.8l-4.7-8.3l-9.5-0.8l6.5-7L378.7,147.2z M368.8,196l12.1,5.6l11.5-6.9l-1.6,13.3
		l10.1,8.8l-13.1,2.6l-5.3,12.3L376,220l-13.3-1.2l9.1-9.8L368.8,196z M350,245.5l-2.1-9.3l8.7,4l8.2-4.9l-1.1,9.5l7.2,6.3l-9.4,1.9
		l-3.8,8.8l-4.7-8.3l-9.5-0.9L350,245.5z M376.6,312.7C376.6,312.7,376.6,312.7,376.6,312.7c-3.2-0.5-6.4-1-9.6-1.6l-29.4-5.5l0,0
		l12.5-13.6l-5.1-22.5l20.9,9.6l19.8-11.8l-2.7,22.9l14.6,12.8H385c-1.4,0-2.5,1.1-2.5,2.5v3.4l-4.6,0.9L376.6,312.7z M475.8,271.5
		l-4.6,10.7l-4.5,10.5l-11.3-20.1l-2.1-0.2l-20.8-1.9l15.6-16.9l-5.1-22.5l20.9,9.6l19.8-11.8l-2.7,22.9l17.3,15.2L475.8,271.5z
		 M520.7,304.4L520.7,304.4l-24,4.2l0,0l1.1-1.2l-3.5-15.5l14.4,6.6l13.6-8.1L520.7,304.4z"/>
	<path d="M367,311.1c5.1,0.9,10.3,1.8,15.5,2.5v56.1c-45.8-3.7-87.1-15.6-106.9-35.8c7.5-12.2,15.2-23.8,22.9-35.6L367,311.1z
		 M434.4,323.3h-29.3c-1.4,0-2.5,1.1-2.5,2.5v29.2c0,1.4,1.1,2.5,2.5,2.5h29.3c1.4,0,2.5-1.2,2.5-2.5v-29.2
		C436.9,324.5,435.8,323.3,434.4,323.3z M555.2,298.3l-76.5,13.4c-7.2,1.3-14.4,2.3-21.6,3v54c53.1-5.7,99.8-22.1,113.2-48.8
		C565.2,312.5,560.2,305.4,555.2,298.3z"/>
	<path fill="#E8AE2C" d="M454.6,303.1H385c-1.4,0-2.5,1.1-2.5,2.5v69.6c0,1.4,1.1,2.5,2.5,2.5h69.6c1.4,0,2.5-1.2,2.5-2.5v-69.6
		C457.1,304.3,456,303.1,454.6,303.1z M405.2,323.3h29.3c1.4,0,2.5,1.1,2.5,2.5v29.2c0,1.4-1.1,2.5-2.5,2.5h-29.3
		c-1.4,0-2.5-1.2-2.5-2.5v-29.2C402.6,324.5,403.8,323.3,405.2,323.3z"/>
	<path d="M570.5,617.7c0,80.7-57.6,147.1-132,156.6l-10-36.7h-39.9l-8.2,32.2c-65.3-19.2-119.9-85.9-105.9-194.9
		c6.9,21.9,28.9,47,59.8,66.3l7,49.5H370l4.2-30c25.3,9.2,53.7,13.9,82.9,11.1l5.6,29.8l29.7-3.3l3.8-34.8
		C521.4,655.1,546.6,640.5,570.5,617.7z M410.7,556.8l-2.1-4.4c-11.3-24.2-24.8-47.1-40.4-68.4l-12.7-17.4l-11.1,13.7
		c-19,23.4-35.5,49.1-49,76.5h33.1c-0.2-1.3-0.3-2.7-0.3-4.1c0-13.7,10.6-24.8,23.7-24.8c13.1,0,23.7,11.1,23.7,24.8
		c0,1.4-0.1,2.7-0.3,4.1H410.7z M465.6,633.5l-1.4-3.7c-7.5-20.3-16.4-39.5-26.7-57.3l-8.4-14.6l-7.4,11.5
		c-12.6,19.6-23.5,41.1-32.4,64.1h0H465.6z M560.8,550.4c-11.3-24.2-24.8-47.1-40.4-68.4l-12.7-17.4l-11.1,13.7
		c-19,23.4-35.5,49.1-49,76.5h34c0-13.7,10.6-24.8,23.7-24.8c13.1,0,23.7,11.1,23.7,24.8h34L560.8,550.4z"/>
</g>
</svg>
