<?xml version="1.0" encoding="utf-8"?>
<!-- Generator: Adobe Illustrator 21.0.2, SVG Export Plug-In . SVG Version: 6.00 Build 0)  -->
<svg version="1.1" id="Layer_1" xmlns="http://www.w3.org/2000/svg" xmlns:xlink="http://www.w3.org/1999/xlink" x="0px" y="0px"
	 viewBox="0 0 850.4 850.4" enable-background="new 0 0 850.4 850.4" xml:space="preserve">
<g>
	<path fill="#E99023" d="M609.4,427.5c33.5,54.7,57.4,127.2,56,200.2c-1.3,66.6-16.8,133.1-53.9,172.2
		c-37.7,39.7-85.9,32.9-129.3,39.6c-59.4,9.3-119.7,2.8-178.9-7.9c-34.7-6.3-65.7-23.3-88.4-65.8C194,726.6,186,677.9,185,628.2
		c-1.4-76.7,26.7-150.2,61.5-207.9c-42.8-5.7-73.5-15.2-74.3-29.3c-1.1-20.9,41.9-41.7,108.5-56.4c24-39.8,50.5-71.6,73.6-128.1
		c29.1-71.2,16.3-89.9,43.3-161.8c2.1-5.6,5.4-10.8,9.8-14.7C427.6,12.1,449.6,4.6,466.1,2c3.3-0.5,5.4,3.4,3.3,6
		c-16.8,19.7-33.1,48.5-20.6,73c24,47,26.2,72.3,50.1,116.6c29.1,53.8,53,83.7,78.9,121.3c67.1,7.6,111.7,23.6,112.8,44.4
		C691.5,382.4,661.7,412.5,609.4,427.5z"/>
	<path fill="#D66440" d="M665.4,627.7c-1.3,66.6-16.8,133.1-53.9,172.2c-37.7,39.7-85.9,32.9-129.3,39.6
		c-59.4,9.3-119.7,2.8-178.9-7.9c-34.7-6.3-65.7-23.3-88.4-65.8C194,726.6,186,677.9,185,628.2c-1.4-76.8,26.7-150.2,61.5-207.9
		c43.8,5.9,100.3,7.7,150.6,6.3c33.4-0.9,66.6,1.9,99.7,6.8c44.1,6.5,82.1,2.9,112.6-5.8C642.9,482.2,666.7,554.7,665.4,627.7z"/>
	<path fill="#5F2D86" d="M690.5,363.2c-1.1-20.8-45.7-36.8-112.8-44.4c-0.2-0.3-0.4-0.5-0.5-0.8c0,0,0,0,0,0
		c-0.3-0.5-0.6-0.9-0.9-1.3c-25.3-36.6-48.9-66.3-77.4-119.2C474.9,153.3,472.8,128,448.8,81c-12.5-24.5,3.8-53.3,20.6-73
		c2.2-2.6,0-6.5-3.3-6c-16.5,2.6-38.5,10.1-58.6,27.9c-4.5,4-7.7,9.2-9.8,14.7c-27,71.9-14.1,90.6-43.3,161.8
		c-15.5,37.8-32.5,64.6-49.2,90l0,0c-2.3,3.5-4.6,7.1-7,10.6c-3.6,5.5-7.2,11-10.7,16.6c0,0-0.1,0.1-0.1,0.1
		c-0.1,0.1-0.2,0.3-0.3,0.4c-2.1,3.4-4.3,6.8-6.4,10.3C214.3,349.2,171.2,370,172.3,391c0.8,14,31.4,23.6,74.2,29.3
		c43.8,5.9,100.3,7.7,150.6,6.3c33.4-0.9,66.6,1.9,99.7,6.8c44.1,6.5,82.1,2.9,112.6-5.8C661.7,412.5,691.5,382.4,690.5,363.2z
		 M480.2,187l-1.7,14.8l11.2,9.8l-14.6,2.9l-5.9,13.6l-7.3-13l-14.8-1.3l10.1-10.9l-3.3-14.5l13.5,6.2L480.2,187z M454.5,134.2
		l-2.1,17.6l13.3,11.7l-17.4,3.5l-7,16.3l-8.7-15.4l-17.6-1.6l12-13l-3.9-17.3l16.1,7.4L454.5,134.2z M456.3,301.3h-26.5l3.2-3.5
		l-2.8-12.5l11.6,5.3l6.2-3.7l4.8-2.9l-1.5,12.7L456.3,301.3z M403.6,228.3l8.7,4l8.2-4.9l-1.1,9.5l7.2,6.3l-9.4,1.9l-3.8,8.8
		l-4.7-8.3l-9.5-0.9l6.5-7L403.6,228.3z M428.6,201.4l-3.8,8.8l-4.7-8.3l-9.5-0.9l6.5-7l-2.1-9.3l8.7,4l8.2-4.9l-1.1,9.5l7.2,6.3
		L428.6,201.4z M410.3,57.8l-2-8.6l8,3.7l7.6-4.5l-1,8.8l6.6,5.8l-8.7,1.7l-3.5,8.1l-4.3-7.7l-8.8-0.8L410.3,57.8z M402.9,99
		l-3.5-15.5l14.4,6.6l13.6-8.1l-1.8,15.7l11.9,10.5l-15.5,3.1l-6.3,14.6l-7.7-13.8l-15.8-1.4L402.9,99z M385.5,145.3l8.7,4l8.2-4.9
		l-1.1,9.5l7.2,6.3l-9.3,1.9l-3.8,8.8l-4.7-8.3l-9.5-0.8l6.5-7L385.5,145.3z M375.6,194.1l12.1,5.6l11.5-6.9l-1.6,13.3l10.1,8.8
		l-13.1,2.6l-5.3,12.3l-6.5-11.7l-13.3-1.2l9.1-9.8L375.6,194.1z M356.8,243.6l-2.1-9.3l8.7,4l8.2-4.9l-1.1,9.5l7.2,6.3l-9.4,1.9
		l-3.8,8.8l-4.7-8.3l-9.5-0.9L356.8,243.6z M383.4,310.9C383.4,310.9,383.4,310.9,383.4,310.9c-3.2-0.5-6.4-1-9.6-1.6l-29.4-5.5l0,0
		l12.5-13.6l-5.1-22.5l20.9,9.6l19.8-11.8l-2.7,22.9l14.6,12.8h-12.7c-1.4,0-2.5,1.1-2.5,2.5v3.4l-4.6,0.9L383.4,310.9z
		 M482.6,269.7l-4.6,10.7l-4.5,10.5l-11.3-20.1l-2.1-0.2l-20.8-1.9l15.6-16.9l-5.1-22.5l20.9,9.6l19.8-11.8l-2.7,22.9l17.3,15.2
		L482.6,269.7z M527.5,302.5L527.5,302.5l-24,4.2l0,0l1.1-1.2l-3.5-15.5l14.4,6.6l13.6-8.1L527.5,302.5z"/>
	<path d="M373.8,309.3c5.1,0.9,10.3,1.8,15.5,2.5v56.1c-45.8-3.7-87.1-15.6-106.9-35.8c7.5-12.2,15.2-23.8,22.9-35.6L373.8,309.3z
		 M441.2,321.5H412c-1.4,0-2.5,1.1-2.5,2.5v29.2c0,1.4,1.1,2.5,2.5,2.5h29.3c1.4,0,2.5-1.2,2.5-2.5V324
		C443.7,322.6,442.6,321.5,441.2,321.5z M562,296.5l-76.5,13.4c-7.2,1.3-14.4,2.3-21.6,3v54c53.1-5.7,99.8-22.1,113.2-48.8
		C572,310.7,567,303.6,562,296.5z"/>
	<path fill="#E8AE2C" d="M461.4,301.3h-69.6c-1.4,0-2.5,1.1-2.5,2.5v69.6c0,1.4,1.1,2.5,2.5,2.5h69.6c1.4,0,2.5-1.2,2.5-2.5v-69.6
		C463.9,302.4,462.8,301.3,461.4,301.3z M412,321.5h29.3c1.4,0,2.5,1.1,2.5,2.5v29.2c0,1.4-1.1,2.5-2.5,2.5H412
		c-1.4,0-2.5-1.2-2.5-2.5V324C409.4,322.6,410.6,321.5,412,321.5z"/>
	<path d="M546.5,607.5c-2.3,90.2-56.4,162.1-122.9,162.1c-4.7,0-9.3-0.5-13.8-1.3l4.1-60.1h-29.4l1.1,50.8
		c-40.1-23.1-68.9-81.8-70.5-151.4c0-2.2,2.3-3.5,3.8-2c20.7,20.7,80.2,55.1,143.2,44.2l5.3,45.4H494l2.6-56.3
		c15.7-7.4,31.3-18.2,46.1-33.4C544.2,604,546.5,605.2,546.5,607.5z M455.4,606L455.4,606c-7.5-24.6-18.3-47.8-32.2-68.7l-3.8-5.7
		l-6.3,13.6c-8.8,19-14.7,39.5-17.4,60.7v0H455.4z M348.4,459.6c-0.5-0.8-1.5-0.9-2.1-0.2c-22.9,32.1-40.3,68.5-51.5,107.6
		c-0.1,0.5,0.2,1,0.7,1l62.4,0c0.7,0,1-1,0.4-1.5C352,562,347.9,554,347.9,545c0-14.3,10.3-25.9,23.1-25.9c2.7,0,7,1.1,9.3,1.8
		c0.6,0.2,1.1-0.6,0.8-1.2L348.4,459.6z M468,519.9c-0.3,0.6,0.2,1.4,0.8,1.2c2.4-0.7,6.7-1.9,9.5-1.9c13,0,23.5,11.8,23.5,26.2
		c0,9.2-4.2,17.2-10.5,21.9c-0.6,0.4-0.3,1.5,0.4,1.5l63.4,0c0.5,0,0.8-0.5,0.7-1c-11.4-39.7-29.1-76.6-52.3-109.2
		c-0.6-0.8-1.7-0.7-2.1,0.2L468,519.9z"/>
</g>
</svg>
