<?xml version="1.0" encoding="utf-8"?>
<!-- Generator: Adobe Illustrator 21.0.2, SVG Export Plug-In . SVG Version: 6.00 Build 0)  -->
<svg version="1.1" id="Layer_1" xmlns="http://www.w3.org/2000/svg" xmlns:xlink="http://www.w3.org/1999/xlink" x="0px" y="0px"
	 viewBox="0 0 850.4 850.4" enable-background="new 0 0 850.4 850.4" xml:space="preserve">
<g>
	<path fill="#E99023" d="M603.1,429c33.5,54.7,57.4,127.2,56,200.2c-1.3,66.6-16.8,133.1-53.9,172.2
		c-37.7,39.7-85.9,32.9-129.3,39.6c-59.4,9.3-119.7,2.8-178.9-7.9c-34.7-6.3-65.7-23.3-88.4-65.8c-20.9-39.1-28.9-87.8-29.8-137.6
		c-1.4-76.7,26.7-150.2,61.5-207.9c-42.8-5.7-73.5-15.2-74.3-29.3c-1.1-20.9,41.9-41.7,108.5-56.4c24-39.8,50.5-71.6,73.6-128.1
		c29.1-71.2,16.3-89.9,43.3-161.8c2.1-5.6,5.4-10.8,9.8-14.7c20.1-17.8,42.1-25.3,58.6-27.9c3.3-0.5,5.4,3.4,3.3,6
		c-16.8,19.7-33.1,48.5-20.6,73c24,47,26.2,72.3,50.1,116.6c29.1,53.8,53,83.7,78.9,121.3c67.1,7.6,111.7,23.6,112.8,44.4
		C685.3,384,655.5,414,603.1,429z"/>
	<path fill="#D66440" d="M659.2,629.2c-1.3,66.6-16.8,133.1-53.9,172.2c-37.7,39.7-85.9,32.9-129.3,39.6
		c-59.4,9.3-119.7,2.8-178.9-7.9c-34.7-6.3-65.7-23.3-88.4-65.8c-20.9-39.1-28.9-87.8-29.8-137.6c-1.4-76.8,26.7-150.2,61.5-207.9
		c43.8,5.9,100.3,7.7,150.6,6.3c33.4-0.9,66.6,1.9,99.7,6.8c44.1,6.5,82.1,2.9,112.6-5.8C636.7,483.7,660.5,556.2,659.2,629.2z"/>
	<path fill="#5F2D86" d="M684.3,364.8c-1.1-20.8-45.7-36.8-112.8-44.4c-0.2-0.3-0.4-0.5-0.5-0.8c0,0,0,0,0,0
		c-0.3-0.5-0.6-0.9-0.9-1.3c-25.3-36.6-48.9-66.3-77.4-119.2c-23.9-44.3-26.1-69.5-50.1-116.6c-12.5-24.5,3.8-53.3,20.6-73
		c2.2-2.6,0-6.5-3.3-6c-16.5,2.6-38.5,10.1-58.6,27.9c-4.5,4-7.7,9.2-9.8,14.7c-27,71.9-14.1,90.6-43.3,161.8
		c-15.5,37.8-32.5,64.6-49.2,90l0,0c-2.3,3.5-4.6,7.1-7,10.6c-3.6,5.5-7.2,11-10.7,16.6c0,0-0.1,0.1-0.1,0.1
		c-0.1,0.1-0.2,0.3-0.3,0.4c-2.1,3.4-4.3,6.8-6.4,10.3C208,350.8,165,371.6,166.1,392.5c0.8,14,31.4,23.6,74.2,29.3
		c43.8,5.9,100.3,7.7,150.6,6.3c33.4-0.9,66.6,1.9,99.7,6.8c44.1,6.5,82.1,2.9,112.6-5.8C655.5,414,685.3,384,684.3,364.8z
		 M474,188.5l-1.7,14.8l11.2,9.8l-14.6,2.9l-5.9,13.6l-7.3-13l-14.8-1.3l10.1-10.9l-3.3-14.5l13.5,6.2L474,188.5z M448.3,135.8
		l-2.1,17.6l13.3,11.7l-17.4,3.5l-7,16.3l-8.7-15.4l-17.6-1.6l12-13l-3.9-17.3l16.1,7.4L448.3,135.8z M450.1,302.8h-26.5l3.2-3.5
		l-2.8-12.5l11.6,5.3l6.2-3.7l4.8-2.9l-1.5,12.7L450.1,302.8z M397.4,229.8l8.7,4l8.2-4.9l-1.1,9.5l7.2,6.3l-9.4,1.9l-3.8,8.8
		l-4.7-8.3l-9.5-0.9l6.5-7L397.4,229.8z M422.4,203l-3.8,8.8l-4.7-8.3l-9.5-0.9l6.5-7l-2.1-9.3l8.7,4l8.2-4.9l-1.1,9.5l7.2,6.3
		L422.4,203z M404.1,59.4l-2-8.6l8,3.7l7.6-4.5l-1,8.8l6.6,5.8l-8.7,1.7l-3.5,8.1l-4.3-7.7l-8.8-0.8L404.1,59.4z M396.6,100.5
		L393.1,85l14.4,6.6l13.6-8.1l-1.8,15.7l11.9,10.5l-15.5,3.1l-6.3,14.6l-7.7-13.8l-15.8-1.4L396.6,100.5z M379.3,146.9l8.7,4
		l8.2-4.9l-1.1,9.5l7.2,6.3l-9.3,1.9l-3.8,8.8l-4.7-8.3l-9.5-0.8l6.5-7L379.3,146.9z M369.4,195.7l12.1,5.6l11.5-6.9l-1.6,13.3
		l10.1,8.8l-13.1,2.6l-5.3,12.3l-6.5-11.7l-13.3-1.2l9.1-9.8L369.4,195.7z M350.6,245.2l-2.1-9.3l8.7,4l8.2-4.9l-1.1,9.5l7.2,6.3
		l-9.4,1.9l-3.8,8.8l-4.7-8.3l-9.5-0.9L350.6,245.2z M377.2,312.4C377.2,312.4,377.2,312.4,377.2,312.4c-3.2-0.5-6.4-1-9.6-1.6
		l-29.4-5.5l0,0l12.5-13.6l-5.1-22.5l20.9,9.6l19.8-11.8l-2.7,22.9l14.6,12.8h-12.7c-1.4,0-2.5,1.1-2.5,2.5v3.4l-4.6,0.9
		L377.2,312.4z M476.4,271.2l-4.6,10.7l-4.5,10.5L456,272.3l-2.1-0.2l-20.8-1.9l15.6-16.9l-5.1-22.5l20.9,9.6l19.8-11.8l-2.7,22.9
		l17.3,15.2L476.4,271.2z M521.3,304L521.3,304l-24,4.2l0,0l1.1-1.2l-3.5-15.5l14.4,6.6l13.6-8.1L521.3,304z"/>
	<path d="M367.6,310.8c5.1,0.9,10.3,1.8,15.5,2.5v56.1c-45.8-3.7-87.1-15.6-106.9-35.8c7.5-12.2,15.2-23.8,22.9-35.6L367.6,310.8z
		 M435,323h-29.3c-1.4,0-2.5,1.1-2.5,2.5v29.2c0,1.4,1.1,2.5,2.5,2.5H435c1.4,0,2.5-1.2,2.5-2.5v-29.2
		C437.5,324.1,436.4,323,435,323z M555.8,298l-76.5,13.4c-7.2,1.3-14.4,2.3-21.6,3v54c53.1-5.7,99.8-22.1,113.2-48.8
		C565.8,312.2,560.8,305.1,555.8,298z"/>
	<path fill="#E8AE2C" d="M455.2,302.8h-69.6c-1.4,0-2.5,1.1-2.5,2.5V375c0,1.4,1.1,2.5,2.5,2.5h69.6c1.4,0,2.5-1.2,2.5-2.5v-69.6
		C457.7,304,456.6,302.8,455.2,302.8z M405.7,323H435c1.4,0,2.5,1.1,2.5,2.5v29.2c0,1.4-1.1,2.5-2.5,2.5h-29.3
		c-1.4,0-2.5-1.2-2.5-2.5v-29.2C403.2,324.1,404.4,323,405.7,323z"/>
	<path d="M395.5,554c0,17-16.2,43.1-17.2,33.9c-2-18.6-9.5-33.9-21.3-33.9c-11.7,0-21.3,15.2-21.3,33.9c0,4.9,0.7,9.6,1.9,13.8
		c0.4,1.5-1,2.8-2.4,2.2c-17.9-7.1-30.7-26.8-30.7-49.9c0-29.1,20.4-52.7,45.5-52.7C375.2,501.3,395.5,524.9,395.5,554z M442.4,554
		c0,17,16.2,43.1,17.2,33.9c2-18.6,9.5-33.9,21.3-33.9c11.7,0,21.3,15.2,21.3,33.9c0,4.9-0.7,9.6-1.9,13.8c-0.4,1.5,1,2.8,2.4,2.2
		c17.9-7.1,30.7-26.8,30.7-49.9c0-29.1-20.4-52.7-45.5-52.7C462.7,501.3,442.4,524.9,442.4,554z M412.8,603.5
		c-14.1,0-25.5,8.9-25.5,19.8c0,10.9,11.4,33.6,25.5,33.6s25.5-22.6,25.5-33.6C438.2,612.3,426.8,603.5,412.8,603.5z M622,645.8
		c-6.9-12-21.7-18-36.1-14.8c-2.3,0.5-4.4,1.2-6.2,2.2c3.7,7.8,5.5,11.8,9.2,19.6c-6,2.8-8.9,4.1-15,6.6c-2.4-5.7-3.6-8.6-6-14.3
		c-6.3,5.9-13,11.3-20.2,16.4c2.7,7.7,4,11.6,6.7,19.3c-6.3,2.2-9.5,3.2-15.9,5.1c-1.9-6.2-2.8-9.3-4.6-15.5
		c-7.4,4.4-15,8.3-22.9,11.7c1.8,7.9,2.7,11.8,4.6,19.7c-6.6,1.5-10,2.2-16.6,3.5c-1.3-6.8-1.9-10.3-3.2-17.1
		c-8.1,2.8-16.3,5.2-24.7,7.1c1.3,10.9,2,16.3,3.4,27.1c-6.9,0.9-10.4,1.2-17.4,1.8c-0.9-10.3-1.3-15.5-2.2-25.8
		c-8.5,1.3-17.1,2.1-25.6,2.5c0.2,9.4,0.3,14.1,0.5,23.5c-7,0.1-10.5,0.1-17.4,0c0.2-9.4,0.3-14,0.5-23.4
		c-8.6-0.2-17.2-0.9-25.6-2.1c-0.6,7.8-1,11.7-1.6,19.4c-6.9-0.6-10.3-0.9-17.2-1.8c1-8.2,1.5-12.3,2.5-20.4
		c-8.6-1.8-16.8-4-24.8-6.6c-1.4,7.3-2.1,11-3.5,18.3c-6.7-1.3-10.1-2-16.8-3.5c1.9-8.2,2.9-12.3,4.8-20.6
		c-8.2-3.3-15.9-7.1-23.1-11.3c-2.5,8.2-3.7,12.3-6.1,20.5c-6.5-2-9.8-3-16.3-5.2c3.3-9.6,5-14.5,8.3-24.1
		c-7.5-5.1-14.3-10.6-20.3-16.3c-3.3,8-5,12-8.3,20c-6.2-2.6-9.2-3.9-15.3-6.8c4.7-10.2,7.1-15.3,11.9-25.4c-0.6-0.2-1.3-0.3-2-0.4
		c-14.9-2.7-30.2,2.2-39.7,12.9c-0.9,1-1.4,1.5-2.3,2.5c-1.8,3.2-1.6,7.3,0.5,10.9c1.4,2.3,2.9,4.6,4.5,6.9
		c2.5-4.6,3.7-6.8,6.1-11.4c5,5.2,7.5,7.7,12.8,12.8c-2.7,5.6-4,8.4-6.7,14c6.3,6.9,13.5,13.8,21.8,20.4c1.5-3.7,2.2-5.6,3.7-9.3
		c6.6,2.6,9.9,3.9,16.6,6.3c-2,5.7-3,8.5-5,14.2c7.9,5.2,16.4,10.2,25.5,14.7c1.8-6.4,2.7-9.6,4.6-16c6.8,1.9,10.3,2.8,17.2,4.5
		c-1.9,7.7-2.8,11.6-4.6,19.3c8.8,3.6,18.1,6.8,27.7,9.6c1.1-6.1,1.6-9.1,2.6-15.1c7.1,1.2,10.7,1.8,17.8,2.7
		c-0.9,6.8-1.4,10.2-2.3,16.9c9.4,2,19.1,3.6,28.9,4.6c0.3-4.2,0.4-6.3,0.7-10.5c7.3,0.5,11,0.7,18.3,0.9c-0.1,4.4-0.2,6.6-0.3,11
		c9.7,0.4,19.4,0.3,29.2-0.4c-0.2-5.2-0.3-7.9-0.4-13.1c7.3-0.2,10.9-0.4,18.2-1c0.4,4.9,0.5,7.4,0.9,12.3c9.6-1.3,19.2-3,28.7-5.3
		c-0.7-5-1-7.4-1.7-12.4c7.2-1,10.8-1.6,18-2.9c0.7,4.1,1.1,6.1,1.8,10.2c9.3-2.9,18.5-6.3,27.3-10.3c-1.5-6-2.2-9.1-3.7-15.1
		c6.9-1.7,10.4-2.6,17.3-4.6c1.3,4.6,2,6.9,3.3,11.5c8.7-4.6,17.1-9.7,25-15.3c-2-5.6-3-8.3-5-13.9c6.6-2.4,9.9-3.6,16.4-6.3
		c1.4,3.5,2.1,5.3,3.6,8.8c8.2-6.7,15.8-14,22.8-21.6c-2.7-5.5-4-8.2-6.7-13.7c4.6-4.9,6.8-7.4,11.2-12.4c3.1,4.6,4.6,6.8,7.7,11.4
		c0.5-0.6,0.9-1.2,1.4-1.9c2.8-3.8,3.2-8.4,1.2-12C623.4,648.2,622.9,647.4,622,645.8z"/>
</g>
</svg>
